<?xml version="1.0" standalone="no"?>
<!DOCTYPE svg PUBLIC "-//W3C//DTD SVG 20010904//EN"
 "http://www.w3.org/TR/2001/REC-SVG-20010904/DTD/svg10.dtd">
<svg version="1.0" xmlns="http://www.w3.org/2000/svg"
 width="700.000000pt" height="700.000000pt" viewBox="0 0 700.000000 700.000000"
 preserveAspectRatio="xMidYMid meet">
<metadata>
Created by potrace 1.14, written by Peter Selinger 2001-2017
</metadata>
<g transform="translate(0.000000,700.000000) scale(0.100000,-0.100000)"
fill="#000000" stroke="none">
<path d="M3828 6290 c-21 -13 -24 -53 -5 -68 7 -6 28 -14 47 -17 78 -14 240
-90 351 -166 350 -238 643 -617 760 -984 38 -119 56 -144 94 -127 33 15 32 40
-4 149 -131 395 -399 751 -759 1010 -183 131 -431 235 -484 203z"/>
<path d="M3803 5769 c-20 -21 -15 -55 10 -66 12 -6 52 -25 89 -41 211 -95 438
-345 522 -576 15 -42 31 -76 35 -77 3 0 14 -2 24 -4 9 -2 24 4 33 12 21 22 12
67 -33 163 -74 158 -209 330 -348 442 -33 27 -66 53 -73 59 -7 6 -48 29 -92
51 -86 44 -148 57 -167 37z"/>
<path d="M3229 5406 c-2 -2 -20 -6 -40 -9 -48 -6 -117 -41 -159 -80 -94 -88
-94 -232 2 -421 93 -184 505 -725 836 -1096 114 -127 151 -179 168 -235 11
-39 11 -43 -6 -48 -28 -7 -93 26 -146 75 -25 23 -99 104 -163 178 -64 74 -118
137 -121 140 -3 3 -41 48 -85 100 -44 52 -82 97 -85 100 -3 3 -30 34 -60 70
-30 36 -57 67 -60 70 -3 3 -46 52 -95 110 -50 58 -100 116 -113 130 -13 14
-94 114 -180 223 -86 110 -190 233 -231 275 -78 78 -184 153 -236 167 -16 5
-37 10 -45 12 -44 13 -129 3 -182 -20 -117 -52 -180 -138 -179 -246 0 -86 32
-158 120 -268 36 -46 90 -109 349 -412 26 -30 52 -59 57 -65 6 -6 53 -60 105
-121 52 -60 99 -115 105 -121 6 -6 35 -39 65 -74 57 -65 73 -82 174 -190 50
-53 122 -133 241 -266 82 -92 151 -171 199 -228 32 -39 68 -82 80 -96 12 -14
36 -46 54 -73 l33 -47 -25 -10 c-34 -12 -100 8 -157 48 -65 46 -120 101 -259
257 -69 77 -129 145 -135 151 -5 6 -50 55 -100 110 -176 194 -221 241 -371
389 -158 157 -286 257 -391 307 -79 37 -189 48 -245 25 -153 -64 -188 -198
-100 -379 53 -110 104 -173 337 -424 41 -44 431 -436 652 -656 356 -353 442
-447 458 -499 15 -46 -58 -63 -123 -30 -59 30 -103 69 -347 306 -273 265 -297
288 -395 367 -192 156 -356 169 -475 36 -79 -88 -80 -166 -7 -288 58 -95 113
-158 281 -322 131 -128 195 -188 375 -353 6 -5 49 -44 96 -84 47 -41 90 -80
95 -86 15 -16 172 -145 242 -198 35 -27 122 -105 195 -176 232 -222 283 -269
438 -392 74 -60 230 -158 320 -204 305 -153 614 -175 940 -66 521 174 997 671
1133 1183 19 71 22 109 22 263 0 244 -17 384 -80 670 -59 271 -82 441 -83 615
-1 241 39 363 206 640 94 155 121 219 122 288 0 76 -31 125 -111 174 -40 25
-157 57 -225 61 -126 8 -277 -66 -401 -197 -134 -142 -194 -309 -207 -571 -8
-174 -34 -254 -104 -317 -48 -44 -99 -62 -173 -61 -163 1 -365 175 -579 498
-71 106 -373 512 -581 780 -55 72 -166 217 -246 323 -148 197 -190 238 -273
267 -44 15 -114 28 -121 21z"/>
<path d="M710 2899 c-27 -49 30 -251 116 -417 307 -591 1001 -1213 1562 -1401
123 -41 164 -47 181 -28 16 20 11 57 -9 68 -8 4 -62 22 -119 40 -57 18 -116
38 -130 44 -14 7 -44 21 -66 31 -146 67 -381 216 -511 323 -17 14 -42 35 -55
45 -134 107 -371 348 -489 496 -29 36 -61 76 -72 90 -42 53 -167 248 -204 320
-66 124 -112 257 -120 344 -6 61 -60 91 -84 45z"/>
<path d="M1252 2728 c-17 -17 -15 -39 9 -110 103 -299 382 -633 709 -847 81
-54 250 -136 314 -153 46 -12 49 -12 67 11 21 25 12 57 -19 68 -271 92 -529
281 -761 558 -87 104 -184 273 -224 392 -12 37 -26 74 -30 81 -10 15 -49 16
-65 0z"/>
</g>
</svg>
